<?xml version="1.0" encoding="UTF-8" standalone="no"?>
<svg
   xmlns:dc="http://purl.org/dc/elements/1.1/"
   xmlns:cc="http://creativecommons.org/ns#"
   xmlns:rdf="http://www.w3.org/1999/02/22-rdf-syntax-ns#"
   xmlns:svg="http://www.w3.org/2000/svg"
   xmlns="http://www.w3.org/2000/svg"
   xmlns:sodipodi="http://sodipodi.sourceforge.net/DTD/sodipodi-0.dtd"
   xmlns:inkscape="http://www.inkscape.org/namespaces/inkscape"
   version="1.1"
   id="svg3058"
   inkscape:version="0.48.2 r9819"
   width="100%"
   height="100%"
   viewBox="0 0 1175 200"
   sodipodi:docname="hitthatline.svg">
  <metadata
     id="metadata3100">
    <rdf:RDF>
      <cc:Work
         rdf:about="">
        <dc:format>image/svg+xml</dc:format>
        <dc:type
           rdf:resource="http://purl.org/dc/dcmitype/StillImage" />
      </cc:Work>
    </rdf:RDF>
  </metadata>
  <defs
     id="defs3098" />
  <sodipodi:namedview
     pagecolor="#ffffff"
     bordercolor="#666666"
     borderopacity="1"
     objecttolerance="10"
     gridtolerance="10"
     guidetolerance="10"
     inkscape:pageopacity="0"
     inkscape:pageshadow="2"
     inkscape:window-width="1280"
     inkscape:window-height="962"
     id="namedview3096"
     showgrid="false"
     inkscape:zoom="0.47740835"
     inkscape:cx="500.76598"
     inkscape:cy="662.88346"
     inkscape:window-x="-8"
     inkscape:window-y="-8"
     inkscape:window-maximized="1"
     inkscape:current-layer="svg3058" />
  <path
     fill="#fefdfd"
     d=" M 0.00 0.00 L 1173.00 0.00 L 1173.00 196.00 L 0.00 196.00 L 0.00 0.00 Z"
     id="path3060"
     style="fill:#fefdfd;fill-opacity:0" />
  <g
     style="font-size:40px;font-style:normal;font-weight:normal;line-height:125%;letter-spacing:0px;word-spacing:0px;fill:#000000;fill-opacity:1;stroke:none;font-family:Sans"
     id="text3880">
    <path
       d="m 0.09464264,193.80756 0,-193.27148822 23.73046836,0 0,69.34570322 C 34.899278,57.04988 48.873873,50.633871 65.74894,50.633728 c 10.370999,1.43e-4 19.379779,2.043598 27.026367,6.130371 7.646363,4.087047 13.117553,9.734014 16.413573,16.940918 3.29577,7.207144 4.94372,17.666118 4.94385,31.376953 l 0,88.72559 -23.73047,0 0,-88.72559 C 90.402152,93.216836 87.831354,84.581591 82.689857,79.176208 77.548161,73.771055 70.275219,71.068421 60.87101,71.068298 53.839688,71.068421 47.225925,72.89215 41.029701,76.53949 34.83336,80.187064 30.41686,85.130907 27.78019,91.371033 c -2.636762,6.24033 -3.95512,14.853607 -3.955079,25.839847 l 0,76.59668 z"
       style="font-size:270px"
       id="path3899" />
    <path
       d="m 150.51945,27.826111 0,-27.29003922 23.73047,0 0,27.29003922 z m 0,165.981449 0,-140.009769 23.73047,0 0,140.009769 z"
       style="font-size:270px"
       id="path3901" />
    <path
       d="m 262.31632,172.58197 3.42774,20.96191 c -6.67976,1.40625 -12.65631,2.10938 -17.92969,2.10938 -8.61333,0 -15.29301,-1.36231 -20.03906,-4.08691 -4.74613,-2.72461 -8.08597,-6.30615 -10.01953,-10.74463 -1.93362,-4.43846 -2.90042,-13.77683 -2.9004,-28.01514 l 0,-80.551758 -17.40234,0 0,-18.457031 17.40234,0 0,-34.672852 23.59864,-14.2382813 0,48.9111333 23.8623,0 0,18.457031 -23.8623,0 0,81.870118 c -5e-5,6.76761 0.41743,11.11819 1.25244,13.05176 0.83491,1.93362 2.19722,3.4717 4.08691,4.61425 1.8896,1.1426 4.59223,1.71389 8.10791,1.71387 2.63666,2e-5 6.10834,-0.30759 10.41504,-0.92285 z"
       style="font-size:270px"
       id="path3903" />
  </g>
  <g
     style="font-size:40px;font-style:normal;font-weight:normal;line-height:125%;letter-spacing:0px;word-spacing:0px;fill:#c22640;fill-opacity:1;stroke:none;font-family:Sans"
     id="text3884">
    <path
       d="m 341.62903,171.26353 3.42773,20.96192 c -6.67975,1.40625 -12.65631,2.10937 -17.92968,2.10937 -8.61333,0 -15.29301,-1.3623 -20.03907,-4.08691 -4.74612,-2.7246 -8.08596,-6.30614 -10.01953,-10.74463 -1.93362,-4.43846 -2.90041,-13.77683 -2.90039,-28.01514 l 0,-80.551754 -17.40234,0 0,-18.457031 17.40234,0 0,-34.672852 23.59863,-14.238281 0,48.911133 23.86231,0 0,18.457031 -23.86231,0 0,81.870114 c -4e-5,6.76761 0.41744,11.1182 1.25245,13.05176 0.83491,1.93362 2.19721,3.4717 4.08691,4.61426 1.88959,1.1426 4.59223,1.71389 8.10791,1.71387 2.63666,2e-5 6.10833,-0.3076 10.41504,-0.92286 z"
       style="font-size:270px"
       id="path3906" />
    <path
       d="m 364.70032,192.48912 0,-193.27148389 23.73047,0 0,69.34570289 c 11.07416,-12.831894 25.04876,-19.247903 41.92382,-19.248047 10.371,1.44e-4 19.37978,2.043599 27.02637,6.130371 7.64637,4.087047 13.11755,9.734014 16.41358,16.940918 3.29576,7.207145 4.94371,17.666118 4.94384,31.376949 l 0,88.72559 -23.73047,0 0,-88.72559 c -10e-5,-11.865129 -2.5709,-20.500375 -7.7124,-25.905757 -5.14169,-5.405154 -12.41464,-8.107788 -21.81885,-8.10791 -7.03132,1.22e-4 -13.64508,1.823851 -19.8413,5.471191 -6.19635,3.647575 -10.61285,8.591417 -13.24952,14.831543 -2.63676,6.240331 -3.95512,14.853603 -3.95507,25.839843 l 0,76.59668 z"
       style="font-size:270px"
       id="path3908" />
    <path
       d="m 606.35559,175.21861 c -8.78916,7.47072 -17.24863,12.74415 -25.37842,15.82032 -8.12996,3.07617 -16.85309,4.61425 -26.16943,4.61425 -15.3809,0 -27.20218,-3.75732 -35.46387,-11.27197 -8.26173,-7.51463 -12.39259,-17.11667 -12.39258,-28.80615 -10e-6,-6.85543 1.56005,-13.11763 4.68018,-18.78662 3.1201,-5.66889 7.20701,-10.21722 12.26074,-13.64502 5.05368,-3.42766 10.74459,-6.02044 17.07276,-7.77832 4.65815,-1.23039 11.68939,-2.41692 21.09375,-3.55957 19.16007,-2.28508 33.2665,-5.00968 42.31933,-8.17383 0.0878,-3.25186 0.13173,-5.31729 0.13184,-6.19629 -1.1e-4,-9.667864 -2.24132,-16.479381 -6.72364,-20.434571 -6.06454,-5.361207 -15.07332,-8.041868 -27.02636,-8.041992 -11.16217,1.24e-4 -19.40191,1.955688 -24.71924,5.866699 -5.31743,3.911247 -9.25053,10.832627 -11.79932,20.76416 l -23.20312,-3.164062 c 2.10936,-9.931531 5.58103,-17.951542 10.41504,-24.060059 4.83395,-6.108268 11.82125,-10.810412 20.96191,-14.106445 9.14057,-3.295757 19.73138,-4.943704 31.77246,-4.943848 11.95304,1.44e-4 21.66494,1.406392 29.13574,4.21875 7.47059,2.812637 12.96375,6.350231 16.4795,10.612793 3.5155,4.26282 5.97643,9.646115 7.38281,16.149903 0.79088,4.043077 1.18639,11.337991 1.18652,21.884762 l 0,31.64063 c -1.3e-4,22.06058 0.50524,36.0132 1.51612,41.85791 1.0106,5.84474 3.01011,11.44776 5.99853,16.80908 l -24.78516,0 c -2.46104,-4.92187 -4.04307,-10.6787 -4.74609,-17.27051 z m -1.97754,-52.99804 c -8.61338,3.51569 -21.53329,6.50397 -38.75976,8.96484 -9.75592,1.40631 -16.65533,2.98834 -20.69825,4.74609 -4.04301,1.75787 -7.16312,4.32867 -9.36035,7.71241 -2.1973,3.38383 -3.29593,7.14115 -3.2959,11.27197 -3e-5,6.32815 2.39499,11.60159 7.18506,15.82031 4.78999,4.21877 11.79926,6.32814 21.02783,6.32813 9.14056,1e-5 17.27043,-1.9995 24.38965,-5.99854 7.11905,-3.999 12.34854,-9.47018 15.68848,-16.41357 2.54872,-5.36129 3.82313,-13.27144 3.82324,-23.73047 z"
       style="font-size:270px"
       id="path3910" />
    <path
       d="m 717.09778,171.26353 3.42773,20.96192 c -6.67975,1.40625 -12.65631,2.10937 -17.92968,2.10937 -8.61333,0 -15.29301,-1.3623 -20.03907,-4.08691 -4.74612,-2.7246 -8.08596,-6.30614 -10.01953,-10.74463 -1.93362,-4.43846 -2.90041,-13.77683 -2.90039,-28.01514 l 0,-80.551754 -17.40234,0 0,-18.457031 17.40234,0 0,-34.672852 23.59863,-14.238281 0,48.911133 23.86231,0 0,18.457031 -23.86231,0 0,81.870114 c -4e-5,6.76761 0.41744,11.1182 1.25245,13.05176 0.83491,1.93362 2.19721,3.4717 4.08691,4.61426 1.88959,1.1426 4.59223,1.71389 8.10791,1.71387 2.63666,2e-5 6.10833,-0.3076 10.41504,-0.92286 z"
       style="font-size:270px"
       id="path3912" />
  </g>
  <g
     style="font-size:40px;font-style:normal;font-weight:normal;line-height:125%;letter-spacing:0px;word-spacing:0px;fill:#000000;fill-opacity:1;stroke:none;font-family:Sans"
     id="text3888">
    <path
       d="m 734.13995,192.48912 0,-193.27148389 23.73047,0 0,193.27148389 z"
       style="font-size:270px"
       id="path3915" />
    <path
       d="m 794.91632,26.507675 0,-27.29003889 23.73047,0 0,27.29003889 z m 0,165.981445 0,-140.009765 23.73047,0 0,140.009765 z"
       style="font-size:270px"
       id="path3917" />
    <path
       d="m 854.90167,192.48912 0,-140.009765 21.35742,0 0,19.907226 c 10.28316,-15.380723 25.13666,-23.071145 44.56055,-23.071289 8.43741,1.44e-4 16.19375,1.516255 23.26904,4.54834 7.07509,3.032362 12.37049,7.009409 15.88623,11.931153 3.5155,4.921996 5.97644,10.766717 7.38282,17.534179 0.87877,4.394636 1.31822,12.085058 1.31836,23.071286 l 0,86.08887 -23.73047,0 0,-85.16602 c -1.1e-4,-9.667869 -0.92296,-16.896866 -2.76856,-21.687007 -1.8458,-4.789927 -5.11973,-8.613166 -9.82177,-11.469726 -4.70224,-2.856325 -10.21737,-4.284546 -16.54541,-4.284668 -10.10749,1.22e-4 -18.83063,3.208127 -26.16944,9.624023 -7.33891,6.416122 -11.00834,18.588962 -11.0083,36.518558 l 0,76.46484 z"
       style="font-size:270px"
       id="path3919" />
    <path
       d="m 1101.0394,147.40123 24.5215,3.03223 c -3.8674,14.3262 -11.0304,25.44435 -21.4893,33.35449 -10.4591,7.91016 -23.8185,11.86523 -40.0781,11.86523 -20.4786,0 -36.7164,-6.30615 -48.7134,-18.91845 -11.9971,-12.61228 -17.99563,-30.30025 -17.99562,-53.06397 -10e-6,-23.55459 6.06442,-41.835826 18.19332,-54.843749 12.1289,-13.007676 27.8613,-19.511575 47.1973,-19.511719 18.7206,1.44e-4 34.0136,6.372207 45.8789,19.116211 11.8651,12.744252 17.7977,30.673922 17.7979,53.789067 -2e-4,1.40631 -0.044,3.51569 -0.1319,6.32812 l -104.414,0 c 0.8788,15.38091 5.2294,27.15824 13.0517,35.33203 7.8222,8.17385 17.5781,12.26076 29.2676,12.26074 8.7011,2e-5 16.1278,-2.28513 22.2803,-6.85546 6.1522,-4.57029 11.0301,-11.8652 14.6338,-21.88477 z m -77.9151,-38.36426 78.1787,0 c -1.0548,-11.777246 -4.043,-20.610245 -8.9648,-26.499021 -7.5587,-9.140506 -17.3585,-13.710814 -29.3994,-13.710938 -10.8985,1.24e-4 -20.0611,3.647581 -27.4878,10.942383 -7.4268,7.295027 -11.5357,17.050877 -12.3267,29.267576 z"
       style="font-size:270px"
       id="path3921" />
  </g>
  <g
     style="font-size:40px;font-style:normal;font-weight:normal;line-height:125%;letter-spacing:0px;word-spacing:0px;fill:#c22640;fill-opacity:1;stroke:none;font-family:Sans"
     id="text3892">
    <path
       d="m 1149.6117,147.6649 -7.251,-102.436522 0,-42.8466794 29.3994,0 0,42.8466794 -6.8554,102.436522 z m -6.1963,47.98828 0,-27.02636 27.29,0 0,27.02636 z"
       style="font-size:270px"
       id="path3924" />
  </g>
</svg>
